<?xml version="1.0" standalone="no"?>
<!DOCTYPE svg PUBLIC "-//W3C//DTD SVG 20010904//EN"
 "http://www.w3.org/TR/2001/REC-SVG-20010904/DTD/svg10.dtd">
<svg version="1.0" xmlns="http://www.w3.org/2000/svg"
 width="3000.000000pt" height="3000.000000pt" viewBox="0 0 3000.000000 3000.000000"
 preserveAspectRatio="xMidYMid meet">
<metadata>
Created by potrace 1.11, written by Peter Selinger 2001-2013
</metadata>
<g transform="translate(0.000000,3000.000000) scale(0.100000,-0.100000)"
fill="#000000" stroke="none">
<path d="M14305 29779 c-229 -11 -682 -45 -845 -64 -642 -76 -1007 -133 -1440
-225 -80 -17 -170 -35 -200 -41 -116 -22 -530 -124 -766 -189 -334 -93 -934
-286 -1219 -395 -548 -208 -1010 -408 -1450 -628 -329 -164 -848 -451 -1055
-582 -19 -13 -102 -64 -185 -115 -598 -371 -1156 -778 -1740 -1269 -531 -447
-1168 -1081 -1631 -1621 -302 -353 -656 -808 -911 -1170 -213 -303 -578 -877
-728 -1145 -221 -394 -538 -1021 -678 -1340 -89 -202 -198 -464 -262 -630 -25
-66 -57 -147 -70 -180 -171 -438 -400 -1188 -535 -1755 -84 -352 -178 -817
-220 -1090 -6 -41 -18 -100 -25 -130 -58 -240 -137 -978 -165 -1535 -13 -268
-13 -1101 0 -1388 6 -122 17 -296 25 -387 8 -91 17 -201 20 -245 27 -337 116
-1009 180 -1345 125 -659 236 -1115 420 -1715 47 -156 169 -521 199 -599 14
-34 43 -112 65 -174 236 -647 588 -1414 947 -2059 203 -363 528 -894 662
-1078 19 -27 62 -88 93 -135 234 -346 586 -804 908 -1184 699 -825 1477 -1556
2406 -2260 224 -170 726 -516 975 -672 286 -179 441 -272 699 -417 316 -177
367 -204 556 -291 99 -46 284 -132 410 -191 548 -255 1181 -506 1655 -655 74
-23 169 -53 210 -67 376 -121 980 -271 1505 -373 327 -63 379 -72 770 -134
293 -46 872 -105 1235 -126 819 -47 1524 -39 2218 25 672 62 1154 134 1682
249 63 14 167 37 230 50 842 183 1877 527 2745 911 1162 514 2189 1128 3156
1885 652 510 1346 1163 1935 1820 127 142 378 436 440 515 17 22 103 132 190
245 175 224 281 369 499 680 548 782 1113 1817 1470 2695 161 395 333 869 430
1185 140 456 226 774 319 1170 47 201 59 254 77 340 120 574 212 1213 269
1870 36 418 55 1127 41 1515 -12 315 -37 771 -46 835 -3 19 -14 134 -25 255
-31 345 -108 880 -186 1295 -52 278 -144 696 -199 905 -14 52 -36 137 -49 188
-134 506 -257 883 -502 1532 -60 159 -281 684 -355 840 -194 415 -425 854
-679 1290 -10 17 -40 68 -67 115 -119 204 -398 635 -581 895 -240 342 -659
882 -862 1111 -25 28 -103 117 -175 200 -940 1078 -2151 2089 -3430 2861
-1019 615 -2266 1174 -3310 1484 -623 185 -1001 277 -1710 415 -174 34 -724
118 -880 134 -60 6 -137 15 -170 20 -102 16 -697 59 -955 70 -284 11 -1072 11
-1335 -1z m1165 -709 c404 -12 791 -40 1180 -86 229 -26 312 -39 650 -95 341
-57 389 -66 795 -153 318 -69 817 -204 1200 -325 903 -285 1811 -685 2695
-1187 118 -67 271 -156 340 -199 69 -42 138 -85 154 -94 54 -31 561 -370 691
-462 180 -128 563 -419 663 -503 45 -38 82 -78 82 -87 0 -11 -11 -20 -32 -25
-44 -10 -940 -11 -1292 -2 -154 4 -429 14 -610 23 -182 9 -446 20 -586 25
-140 5 -316 14 -390 20 -521 39 -1539 39 -1885 -1 -49 -5 -234 -24 -410 -40
-294 -28 -370 -31 -940 -39 -341 -5 -629 -11 -640 -14 -20 -6 -101 -7 -1300
-25 -620 -10 -880 -19 -1225 -42 -93 -6 -472 -12 -870 -13 -773 -1 -715 -4
-1330 70 -113 14 -333 33 -490 44 -342 24 -453 35 -585 60 -173 32 -344 43
-550 36 -193 -7 -487 -28 -650 -47 -49 -6 -137 -14 -195 -17 -122 -8 -168 -29
-200 -93 -47 -91 -50 -137 -60 -814 -12 -902 -18 -1127 -40 -1575 -11 -217
-24 -498 -30 -625 -5 -126 -15 -320 -20 -430 -6 -110 -15 -465 -20 -790 -6
-324 -14 -716 -20 -870 -13 -387 -17 -1482 -6 -1874 l9 -324 -24 7 c-13 4 -37
11 -54 16 -16 4 -88 36 -160 70 -125 60 -328 144 -505 208 -91 34 -410 132
-705 217 -276 79 -739 179 -955 205 -47 6 -134 17 -195 25 -366 49 -1019 18
-1504 -70 -443 -81 -647 -148 -758 -249 -36 -32 -81 -59 -145 -85 -271 -112
-708 -333 -935 -473 -867 -534 -1464 -1389 -1712 -2449 -66 -282 -101 -605
-108 -994 -4 -249 -2 -322 17 -515 25 -257 66 -553 111 -783 100 -522 375
-1127 692 -1522 178 -222 585 -622 844 -829 227 -182 566 -386 833 -501 90
-39 146 -69 148 -79 2 -10 -29 -47 -79 -93 -45 -43 -158 -159 -251 -258 -158
-168 -232 -259 -448 -555 -46 -63 -133 -176 -193 -250 -60 -74 -142 -184 -182
-245 -157 -235 -337 -625 -485 -1048 -27 -77 -54 -145 -60 -151 -20 -20 -45
10 -123 155 -432 797 -811 1695 -1065 2524 -17 55 -47 152 -66 215 -35 113
-129 464 -180 670 -47 191 -80 346 -145 675 -71 354 -154 960 -195 1415 -65
720 -67 1774 -6 2415 11 110 22 234 25 275 4 41 15 140 26 220 10 80 30 251
44 380 15 129 35 278 45 330 10 52 21 115 25 140 4 25 22 119 40 210 95 464
163 747 279 1145 30 105 66 231 81 280 93 323 286 853 475 1305 269 644 732
1534 1065 2045 343 528 518 774 895 1259 535 690 1323 1492 2075 2112 391 323
931 717 1320 964 1253 795 2417 1319 3845 1730 473 137 1262 303 1750 370 74
10 169 23 210 29 684 97 1477 135 2310 111z m-4211 -3554 c203 -33 385 -53
671 -71 129 -8 348 -28 485 -44 545 -64 820 -81 1304 -81 370 0 484 4 1011 36
176 10 576 18 1190 25 509 5 995 14 1080 19 85 6 414 14 730 19 607 10 733 16
1135 57 138 14 336 32 440 40 263 20 1026 20 1435 -1 173 -8 428 -20 565 -25
138 -6 315 -14 395 -20 324 -21 911 -35 1530 -35 619 0 668 1 888 24 215 22
236 23 265 8 70 -34 520 -466 837 -802 789 -838 1434 -1703 1985 -2665 307
-534 522 -964 750 -1495 115 -269 152 -367 166 -440 30 -160 52 -855 89 -2820
5 -297 17 -675 25 -840 45 -896 67 -1490 74 -2055 10 -714 0 -1551 -23 -1930
-26 -440 -48 -1122 -56 -1730 -6 -466 -11 -585 -23 -627 -29 -100 -170 -460
-282 -718 -375 -864 -833 -1684 -1365 -2440 -246 -351 -608 -825 -630 -825
-17 0 -29 35 -69 201 -79 329 -286 987 -433 1379 -38 102 -105 284 -148 405
-93 261 -137 374 -226 572 -147 329 -253 503 -481 789 -70 89 -192 249 -270
355 -156 215 -288 366 -527 601 -128 128 -156 160 -147 172 6 7 58 33 114 56
206 84 494 246 710 398 356 250 932 819 1134 1122 120 180 255 439 358 686
133 320 200 580 264 1029 55 385 64 499 66 842 2 176 5 326 9 331 3 5 29 12
58 16 77 10 140 45 255 144 56 48 139 118 185 157 269 226 547 592 686 902
115 256 222 636 264 933 20 148 17 657 -5 785 -69 393 -197 662 -426 898 -148
152 -277 246 -524 381 -38 21 -71 44 -74 52 -3 7 11 71 31 141 127 456 142
1013 35 1360 -113 365 -359 670 -722 895 -211 131 -425 196 -718 218 -387 29
-829 -84 -1346 -344 -83 -41 -114 -52 -121 -43 -5 7 -14 52 -21 100 -62 454
-359 913 -786 1212 -262 184 -523 288 -865 346 -161 27 -469 36 -646 20 -504
-48 -1044 -232 -1523 -520 -440 -265 -701 -510 -1125 -1054 -76 -98 -145 -181
-153 -184 -8 -3 -25 3 -38 13 -234 187 -331 251 -530 349 -412 203 -796 244
-1200 130 -100 -29 -299 -121 -415 -192 -207 -128 -474 -362 -647 -567 -296
-354 -529 -829 -617 -1257 -37 -180 -46 -273 -46 -454 1 -265 40 -511 145
-895 55 -199 63 -244 46 -254 -5 -4 -48 -17 -96 -31 -172 -50 -325 -131 -473
-250 -245 -198 -457 -552 -516 -863 -56 -297 -38 -597 54 -874 39 -120 143
-330 215 -438 209 -312 479 -550 787 -694 349 -164 667 -236 1068 -241 l225
-3 7 -224 c15 -527 80 -924 230 -1403 107 -345 355 -884 551 -1200 170 -276
413 -561 642 -753 202 -170 634 -475 870 -614 355 -209 1087 -495 1458 -568
31 -6 57 -15 57 -19 0 -4 -24 -18 -52 -32 -29 -13 -111 -57 -183 -98 -463
-265 -460 -263 -615 -406 -58 -54 -166 -143 -240 -198 -74 -55 -170 -134 -214
-176 -186 -180 -590 -643 -637 -731 -25 -47 -43 -64 -104 -104 -41 -26 -123
-86 -182 -133 -59 -48 -151 -118 -203 -156 -122 -90 -217 -181 -293 -282 -34
-44 -105 -127 -157 -185 -215 -236 -371 -447 -405 -549 -9 -27 -22 -55 -30
-61 -8 -6 -100 -17 -217 -24 -307 -20 -569 -4 -907 55 -90 16 -251 40 -358 54
-107 14 -203 29 -212 35 -10 5 -37 34 -60 64 -53 68 -91 97 -185 142 -93 45
-286 81 -501 95 -91 6 -154 15 -161 22 -16 17 -56 189 -56 236 2 101 192 450
290 531 46 38 133 67 243 82 104 14 175 3 264 -42 98 -49 293 -209 473 -389
186 -186 160 -171 309 -185 47 -5 57 -2 104 30 81 54 306 231 392 308 76 67
127 141 127 183 0 35 -90 171 -268 410 -138 183 -201 259 -273 325 -176 161
-305 254 -440 317 -138 65 -191 75 -384 75 -163 1 -179 -1 -374 -42 -112 -24
-260 -61 -330 -83 -69 -21 -142 -39 -162 -39 -56 0 -93 36 -120 118 -31 95
-53 134 -94 170 -60 54 -89 64 -134 51 -53 -16 -65 -9 -100 53 -33 58 -73 84
-166 108 -44 11 -55 11 -82 -3 -78 -41 -118 -95 -162 -222 -43 -123 -78 -133
-260 -77 -71 23 -219 60 -328 83 -193 42 -203 43 -388 43 -190 1 -190 0 -287
-33 -167 -57 -344 -173 -525 -343 -117 -110 -141 -139 -314 -370 -158 -211
-236 -333 -246 -379 -9 -45 37 -127 110 -195 78 -73 308 -252 356 -278 20 -10
49 -29 64 -42 25 -21 39 -24 105 -24 43 0 92 4 111 10 24 7 88 63 220 192 202
199 395 353 483 386 78 29 151 35 253 19 157 -25 214 -61 318 -206 60 -84 191
-365 291 -622 38 -99 67 -209 55 -209 -79 -1 -372 -26 -514 -45 -104 -14 -300
-36 -435 -50 -362 -36 -546 -61 -761 -100 -106 -20 -215 -35 -243 -35 -113 2
-423 -12 -450 -21 -19 -6 -87 -6 -185 1 -228 15 -217 12 -236 69 -34 105 -206
338 -415 566 -51 55 -113 127 -138 160 -25 33 -72 91 -104 128 -32 38 -58 76
-59 85 -5 125 -20 426 -33 657 -13 234 -16 476 -14 1255 1 531 -2 1085 -6
1231 l-9 266 93 99 c300 321 507 643 742 1159 356 779 498 1510 459 2362 -24
532 -82 967 -172 1293 -53 188 -168 451 -269 616 -194 314 -278 435 -407 590
-100 121 -338 355 -455 448 -47 37 -91 80 -96 94 -30 80 -32 2154 -2 2712 5
96 12 396 15 665 3 270 7 517 10 550 3 33 12 218 20 410 8 193 20 436 25 540
33 641 42 917 49 1590 5 413 12 757 16 767 8 21 25 24 295 48 300 27 327 28
530 24 129 -2 215 -9 329 -28z m10939 -2720 c314 -64 565 -187 791 -386 357
-316 535 -729 491 -1140 -10 -92 -9 -112 5 -155 39 -116 146 -164 257 -116 24
10 104 55 178 101 472 287 999 457 1350 436 313 -18 498 -89 745 -281 190
-148 311 -317 389 -542 109 -315 83 -847 -61 -1283 -57 -171 -65 -218 -52
-279 17 -83 51 -111 247 -211 229 -115 345 -193 463 -310 108 -107 156 -173
227 -316 104 -206 151 -442 152 -754 0 -449 -122 -938 -326 -1302 -143 -255
-375 -532 -607 -725 -124 -103 -146 -113 -260 -113 -115 0 -201 21 -357 87
-148 63 -251 132 -373 252 -270 263 -350 527 -358 1186 -3 269 -36 432 -120
596 -154 298 -398 404 -819 353 -192 -23 -525 -26 -650 -5 -209 34 -312 101
-503 331 -322 385 -515 507 -744 471 -73 -12 -164 -44 -342 -121 -122 -53
-366 -137 -576 -199 -118 -34 -335 -79 -437 -90 -175 -19 -420 -9 -563 23
-400 90 -434 92 -561 32 -64 -30 -99 -61 -331 -288 -143 -140 -297 -283 -343
-318 -223 -170 -392 -251 -765 -368 -347 -109 -482 -165 -558 -231 -67 -59
-108 -163 -182 -461 -20 -80 -48 -181 -62 -225 -44 -136 -142 -376 -190 -465
-86 -161 -242 -343 -367 -430 -48 -32 -219 -116 -353 -171 -41 -17 -93 -47
-116 -66 l-42 -36 -110 6 c-375 20 -801 167 -1057 364 -272 209 -486 521 -573
836 -55 202 -55 490 1 685 48 169 165 372 279 488 166 168 347 260 590 299
153 24 209 57 241 141 26 68 5 207 -72 474 -72 252 -126 498 -145 662 -19 165
-7 447 25 593 103 465 332 895 656 1228 556 575 1091 706 1698 417 178 -85
369 -220 532 -376 109 -103 162 -131 232 -120 86 14 147 66 273 232 423 559
646 796 950 1009 408 286 882 490 1334 575 182 34 251 39 506 35 209 -3 256
-7 363 -29z m-15183 -4046 c321 -46 498 -83 970 -204 275 -71 708 -216 954
-321 680 -287 1114 -659 1505 -1287 188 -301 253 -464 325 -813 60 -292 69
-367 112 -913 24 -299 -3 -814 -55 -1067 -7 -39 -17 -92 -21 -120 -19 -138
-152 -588 -222 -750 -185 -430 -314 -679 -465 -904 -84 -124 -289 -360 -409
-471 -257 -238 -749 -579 -1054 -730 -234 -116 -662 -290 -870 -355 -204 -63
-316 -83 -536 -96 -484 -29 -1117 24 -1684 141 -256 53 -307 65 -560 136 -500
139 -870 320 -1255 615 -293 223 -729 663 -898 905 -280 401 -496 965 -557
1454 -4 30 -13 93 -21 140 -7 47 -20 155 -29 240 -8 85 -20 205 -26 265 -16
150 -6 513 21 755 42 387 115 681 255 1030 265 658 683 1175 1255 1554 154
102 248 155 516 289 652 327 1042 437 1749 497 127 11 257 27 290 35 100 25
448 13 710 -25z m21635 -215 c0 -2 20 -81 44 -177 106 -421 192 -854 247
-1238 10 -74 21 -141 24 -150 2 -8 11 -76 20 -150 9 -74 20 -160 25 -190 9
-48 21 -175 60 -600 18 -201 40 -777 40 -1055 0 -355 -29 -1053 -50 -1190 -5
-33 -14 -123 -20 -200 -6 -77 -15 -171 -21 -210 -5 -38 -21 -155 -35 -260 -57
-444 -124 -814 -234 -1300 -28 -126 -39 -155 -57 -155 -15 0 -16 32 -9 323 3
178 11 384 16 457 32 439 40 885 30 1687 -6 439 -15 881 -20 983 -5 102 -17
361 -25 575 -9 215 -22 500 -30 635 -12 202 -34 1158 -31 1360 0 30 -3 233 -8
451 -5 218 -6 401 -2 407 6 9 36 6 36 -3z m-6324 -341 c134 -96 236 -188 446
-402 375 -384 452 -484 573 -735 189 -393 234 -516 270 -731 89 -536 51 -934
-139 -1468 -76 -215 -140 -359 -270 -613 -139 -273 -237 -429 -360 -572 -183
-212 -300 -285 -593 -367 -341 -95 -664 -84 -1007 34 -115 40 -242 73 -328 85
-25 3 -51 11 -56 18 -5 7 -12 62 -15 122 -7 156 -36 241 -134 391 -61 93 -14
113 82 36 70 -56 152 -107 256 -158 270 -134 538 -171 799 -111 297 68 447
145 639 331 291 283 475 655 525 1066 58 483 40 1018 -47 1380 -66 273 -191
553 -328 738 -94 126 -427 457 -559 555 -97 72 -224 142 -374 204 -62 26 -96
53 -67 53 15 0 320 109 446 159 55 22 114 40 131 41 23 0 54 -16 110 -56z
m-2201 -244 c167 -37 293 -57 413 -66 51 -4 95 -10 97 -15 3 -4 -30 -36 -73
-72 -131 -108 -206 -209 -287 -382 -24 -52 -48 -95 -54 -95 -5 0 -58 49 -118
109 -65 65 -142 130 -195 165 -47 31 -89 56 -93 56 -7 0 -127 59 -133 65 -8 8
221 234 252 249 41 20 35 21 191 -14z m1404 -340 c164 -19 311 -120 596 -411
229 -234 285 -324 387 -614 42 -121 48 -165 22 -165 -9 0 -74 37 -143 83 -69
46 -153 100 -186 121 -33 20 -141 90 -240 155 -99 65 -238 151 -309 192 -71
41 -218 134 -328 207 -110 73 -246 160 -303 193 -56 33 -111 69 -120 80 -18
18 -17 20 4 43 29 31 139 81 232 105 84 23 250 27 388 11z m2985 -130 c94 -48
163 -189 186 -380 6 -52 15 -214 20 -360 12 -377 54 -604 152 -827 124 -285
401 -566 720 -729 29 -15 98 -46 153 -69 l100 -42 7 -44 c12 -80 8 -511 -6
-679 -27 -308 -84 -691 -133 -890 -60 -247 -183 -566 -306 -800 -140 -264
-305 -478 -587 -760 -522 -522 -947 -801 -1505 -985 -446 -148 -1035 -275
-1465 -315 -69 -6 -183 -18 -255 -26 -311 -35 -806 -27 -1045 16 -183 33 -411
107 -660 213 -58 25 -152 64 -210 87 -341 138 -617 304 -1075 646 -291 217
-541 486 -717 769 -89 145 -94 153 -171 305 -176 344 -317 690 -387 950 -99
368 -147 703 -157 1086 -5 207 8 529 24 570 2 7 44 44 91 83 48 38 105 88 127
110 36 37 65 52 65 34 1 -89 62 -480 101 -647 38 -168 66 -250 195 -573 224
-563 315 -712 623 -1022 266 -268 588 -420 941 -447 77 -5 96 -11 205 -64 172
-84 218 -95 405 -94 134 1 168 4 254 27 204 55 347 153 464 320 30 43 66 84
79 90 42 19 192 -9 372 -68 256 -86 444 -117 706 -118 261 -1 552 61 805 170
199 86 313 171 477 353 178 197 301 389 477 740 137 274 210 450 300 720 145
437 194 780 167 1165 -24 328 -65 566 -128 735 -48 130 -212 490 -285 628 -33
63 -57 116 -54 119 2 3 110 7 238 9 128 2 265 8 303 13 39 5 131 8 205 7 124
-1 140 -3 184 -26z m-4897 -169 c134 -63 136 -84 16 -145 -77 -38 -555 -264
-638 -302 -16 -7 -73 -33 -125 -57 -100 -46 -120 -48 -120 -16 0 45 105 195
196 280 102 95 288 211 413 256 89 32 165 27 258 -16z m1144 -250 c160 -94
229 -140 229 -153 0 -8 -22 -36 -48 -64 -56 -59 -68 -93 -87 -247 -37 -305
-43 -648 -15 -877 20 -162 91 -575 111 -642 47 -162 173 -234 302 -175 122 56
188 151 237 341 65 258 67 548 5 953 -14 88 -39 214 -56 280 -48 183 -47 167
-9 159 37 -7 66 -24 290 -172 85 -56 225 -146 310 -200 85 -53 232 -154 325
-224 94 -69 186 -137 205 -150 61 -40 60 -37 60 -248 0 -228 -28 -498 -66
-639 -72 -269 -218 -506 -423 -685 -99 -87 -235 -146 -384 -167 -318 -44 -568
57 -858 348 -179 180 -214 243 -269 476 -16 66 -42 174 -59 240 -71 276 -92
422 -98 666 -9 369 22 664 100 964 46 174 66 246 73 256 11 18 43 8 125 -40z
m-2411 -117 c0 -4 -19 -46 -41 -93 -177 -367 -250 -758 -228 -1225 12 -246 35
-370 109 -596 64 -194 170 -460 227 -574 109 -217 306 -436 611 -682 69 -55
83 -70 78 -88 -33 -121 -32 -257 4 -396 12 -45 18 -85 15 -88 -18 -18 -211 78
-325 162 -83 61 -279 260 -350 356 -66 89 -193 338 -273 535 -25 61 -64 155
-87 210 -64 153 -116 311 -144 437 -57 258 -105 624 -109 833 -3 174 20 410
48 505 44 143 82 278 119 425 20 77 44 150 52 163 17 25 64 49 189 92 83 30
105 34 105 24z m1636 -52 c19 -12 53 -101 65 -168 8 -48 8 -90 0 -162 -61
-534 -62 -671 -10 -1017 31 -207 52 -311 98 -480 69 -256 104 -354 186 -521
36 -72 65 -142 65 -155 0 -13 -11 -42 -23 -64 l-23 -40 -274 -1 c-256 0 -280
-2 -350 -23 -97 -29 -226 -93 -301 -148 -32 -23 -65 -43 -72 -43 -41 0 -366
298 -457 419 -95 125 -193 347 -305 687 -56 172 -67 228 -86 444 -16 188 11
548 43 587 22 27 370 195 381 184 6 -6 4 -62 -7 -158 -34 -317 -31 -679 10
-1006 28 -230 68 -326 157 -381 87 -53 200 -44 259 21 47 52 102 213 133 388
62 357 26 1159 -60 1324 -8 16 -12 37 -9 45 6 15 68 47 284 147 52 24 133 63
180 86 91 44 99 47 116 35z m158 -3022 c119 -26 150 -44 217 -123 95 -113 111
-215 61 -388 -61 -209 -167 -316 -352 -355 -107 -23 -229 -15 -301 18 -64 29
-163 122 -203 191 -38 65 -84 187 -92 245 -17 133 88 297 244 380 121 65 235
73 426 32z m-10451 -2690 c4 -41 9 -550 10 -1130 2 -719 7 -1137 16 -1313 9
-167 11 -261 4 -268 -6 -6 -41 11 -99 49 -99 66 -105 72 -137 133 -26 52 -182
236 -439 519 -180 198 -279 289 -428 393 -36 25 -108 84 -160 132 -190 174
-235 207 -455 333 -77 44 -180 103 -230 132 -49 29 -114 63 -142 76 -50 23
-69 50 -40 58 6 2 73 18 147 36 325 78 1002 351 1310 528 99 57 387 246 524
346 44 31 87 55 95 54 12 -2 18 -23 24 -78z m-4733 -640 c442 -115 941 -211
1255 -240 66 -6 188 -17 270 -25 83 -8 226 -18 318 -21 129 -6 170 -10 174
-21 3 -7 -5 -46 -18 -85 -38 -118 -28 -139 193 -403 407 -489 534 -718 704
-1280 25 -82 57 -169 70 -192 35 -60 91 -94 260 -158 81 -30 195 -80 253 -111
121 -64 469 -292 587 -385 425 -334 430 -338 656 -573 256 -267 340 -376 449
-585 l32 -61 -18 -47 c-29 -79 -168 -362 -222 -455 -56 -94 -138 -208 -218
-303 -28 -33 -88 -107 -135 -165 -96 -120 -275 -302 -321 -325 -30 -16 -32
-15 -87 17 -30 18 -90 67 -131 109 -48 47 -94 84 -125 98 -35 15 -91 63 -195
164 -80 79 -181 174 -224 211 -43 38 -123 121 -179 185 -56 64 -148 166 -203
226 -196 213 -369 432 -525 665 -42 63 -133 198 -202 300 -68 102 -148 228
-178 280 -29 52 -64 115 -78 139 -13 24 -39 60 -57 80 -74 83 -270 442 -340
626 -142 368 -243 993 -245 1515 -1 255 -42 340 -172 355 -67 8 -126 -26 -161
-95 l-29 -55 6 -300 c3 -165 10 -331 15 -368 6 -37 18 -134 26 -215 52 -493
158 -879 343 -1248 74 -146 263 -476 301 -524 15 -19 56 -84 92 -145 62 -107
324 -509 449 -688 34 -49 69 -105 77 -125 9 -20 69 -192 133 -382 65 -190 146
-421 180 -515 67 -185 161 -482 209 -665 69 -259 150 -693 171 -906 5 -60 14
-154 19 -209 23 -244 24 -452 2 -670 -23 -231 -28 -255 -45 -255 -16 0 -337
189 -566 333 -1691 1061 -3129 2455 -4219 4087 -249 374 -326 498 -323 528 1
14 29 98 62 186 33 89 89 242 124 342 178 496 344 832 520 1049 142 176 200
250 272 349 43 60 105 145 137 189 97 134 202 251 432 486 227 231 305 301
333 301 10 0 51 -9 92 -20z m18296 -150 c53 -43 411 -404 525 -530 52 -58 141
-168 198 -245 57 -77 142 -192 189 -255 47 -63 115 -151 152 -195 174 -207
298 -416 407 -680 95 -232 147 -368 223 -580 43 -121 101 -279 128 -352 109
-282 316 -923 396 -1223 33 -126 112 -468 126 -551 10 -57 9 -71 -4 -98 -9
-17 -26 -36 -39 -43 -27 -15 -197 -24 -712 -37 -245 -6 -461 -17 -580 -30
-104 -10 -275 -22 -380 -26 -104 -3 -352 -16 -550 -27 -310 -19 -475 -22
-1195 -23 -459 0 -841 -5 -849 -9 -7 -5 -208 -9 -447 -10 -375 -2 -434 0 -434
13 0 31 214 649 243 704 18 31 130 204 250 384 121 179 239 363 264 407 24 45
62 103 83 131 64 84 290 490 366 660 95 211 144 360 199 600 39 170 57 293
100 665 21 186 37 633 25 705 -5 33 -10 63 -10 67 0 17 -67 82 -97 94 -73 31
-157 0 -200 -73 -26 -44 -26 -50 -34 -292 -7 -219 -34 -539 -59 -706 -45 -302
-103 -549 -170 -734 -43 -115 -142 -329 -192 -412 -25 -41 -62 -105 -83 -142
-20 -37 -57 -91 -82 -120 -24 -28 -67 -95 -95 -147 -66 -123 -116 -201 -322
-505 -279 -411 -414 -589 -590 -775 -39 -41 -133 -146 -209 -232 -159 -181
-269 -282 -324 -297 -51 -15 -144 -13 -354 4 -97 8 -277 19 -400 25 -396 19
-406 20 -436 43 -46 36 -161 224 -258 422 -105 215 -119 254 -112 299 6 39
126 241 205 346 31 41 151 173 267 293 206 215 272 273 632 553 165 129 501
348 641 419 49 24 148 67 221 94 72 27 152 61 177 76 53 31 100 92 115 149 14
58 30 108 95 301 152 456 268 653 661 1123 84 100 159 195 168 211 24 47 27
101 10 161 -30 100 -30 109 -4 114 13 3 94 7 179 11 315 11 758 53 915 86 28
6 102 19 165 30 199 33 518 102 700 153 69 18 132 34 141 35 9 1 33 -13 55
-29z m-15565 -598 c52 -32 144 -87 205 -121 107 -60 153 -96 346 -269 51 -46
136 -115 188 -155 152 -113 195 -154 315 -297 62 -74 159 -187 215 -250 101
-115 114 -133 145 -222 20 -58 67 -100 207 -187 117 -72 455 -331 557 -426 35
-33 114 -123 176 -200 62 -77 148 -178 190 -225 100 -111 175 -211 175 -232 0
-16 -13 -18 -143 -18 l-142 0 -165 166 c-182 182 -241 234 -470 410 -498 382
-785 560 -1080 665 -74 27 -143 57 -153 67 -10 11 -47 105 -83 211 -136 407
-275 673 -523 1005 -117 156 -109 171 40 78z m12823 -109 c-10 -15 -61 -86
-114 -158 -199 -271 -306 -460 -413 -730 -54 -138 -137 -380 -137 -402 0 -24
-51 -70 -92 -83 -152 -48 -340 -133 -483 -218 -88 -52 -344 -224 -466 -313
-97 -71 -156 -115 -383 -292 -44 -34 -127 -109 -185 -166 -58 -57 -150 -146
-203 -198 l-97 -94 -143 3 c-134 3 -143 4 -146 23 -3 23 64 113 173 235 42 47
137 159 210 250 132 165 172 203 345 330 47 35 110 84 140 110 74 62 179 136
269 189 112 66 158 113 177 180 19 65 54 114 190 267 55 61 141 161 193 222
100 119 140 156 292 270 53 39 140 111 194 159 168 152 215 190 299 239 44 26
126 74 181 107 130 79 209 118 213 107 2 -5 -5 -21 -14 -37z m-7759 -422 c70
-15 277 -42 355 -46 250 -15 496 -58 582 -101 26 -13 52 -24 59 -24 31 0 142
-65 200 -119 59 -53 68 -67 79 -113 6 -29 16 -62 21 -73 26 -57 127 -564 168
-845 11 -74 25 -162 31 -195 17 -92 28 -278 18 -297 -6 -13 -21 -18 -50 -18
-23 0 -82 -5 -131 -11 -82 -11 -90 -10 -107 7 -10 11 -25 52 -33 94 -29 145
-114 388 -167 480 -5 8 -26 44 -46 80 -80 141 -226 348 -291 414 -77 78 -187
155 -259 181 -27 10 -53 22 -59 26 -5 4 -47 13 -92 20 -134 20 -291 -9 -436
-83 -56 -28 -135 -76 -147 -88 -3 -3 -68 -52 -145 -110 -77 -57 -194 -157
-261 -222 -66 -65 -125 -118 -131 -118 -6 0 -53 37 -105 83 -117 101 -146 125
-225 182 -35 25 -63 52 -63 59 0 8 16 35 35 61 20 25 84 117 142 203 190 281
220 316 361 416 93 65 235 135 317 156 66 16 102 19 205 15 69 -2 148 -9 175
-14z m2920 -136 c141 -29 393 -179 501 -299 29 -32 105 -136 169 -230 64 -94
139 -203 167 -242 59 -84 58 -98 -10 -141 -26 -17 -110 -82 -186 -147 -77 -64
-148 -116 -159 -116 -12 0 -65 44 -131 108 -119 115 -374 313 -508 393 -196
118 -440 145 -619 69 -134 -57 -277 -176 -374 -313 -22 -31 -43 -57 -47 -57
-3 0 -9 24 -13 53 -4 28 -20 103 -36 166 -16 63 -34 156 -39 206 -5 51 -23
153 -40 227 -16 75 -30 139 -30 142 0 14 101 50 220 78 84 19 184 34 305 43
165 13 261 24 510 60 123 17 237 17 320 0z m-618 -2135 c17 -10 36 -27 41 -37
5 -10 10 -87 11 -171 1 -84 8 -212 16 -285 39 -356 42 -850 12 -1952 -12 -432
-9 -700 12 -1235 14 -356 57 -937 80 -1085 11 -66 25 -160 31 -210 33 -257 98
-645 168 -1010 11 -55 17 -106 14 -113 -4 -12 -81 -14 -501 -9 -480 5 -825 21
-1154 52 -86 8 -162 15 -167 15 -17 0 -11 49 26 225 36 172 101 539 149 830
14 88 32 180 40 205 7 25 19 131 25 235 6 105 15 222 20 260 5 39 12 124 15
190 3 66 13 194 22 285 17 177 15 261 -12 640 -24 338 -54 444 -135 488 -65
36 -96 35 -263 -7 -85 -22 -208 -50 -273 -61 -66 -12 -136 -25 -157 -31 -36
-10 -118 -22 -467 -74 -91 -13 -239 -31 -330 -40 -187 -18 -398 -46 -610 -80
-80 -13 -181 -26 -225 -30 -44 -3 -127 -13 -185 -20 -58 -8 -244 -22 -415 -31
-432 -25 -517 -18 -1085 80 -264 45 -387 74 -441 102 -16 8 -49 35 -74 61 -35
37 -46 58 -54 98 -16 87 -44 353 -37 363 3 5 27 11 53 14 74 7 107 28 289 182
149 125 189 167 335 342 311 374 400 503 529 769 129 268 152 312 184 362 62
97 55 171 -30 330 -30 56 -52 108 -48 114 9 15 469 4 684 -17 231 -22 506 -28
650 -15 69 6 233 18 365 26 132 8 382 26 555 39 173 14 428 32 565 41 306 20
473 37 675 69 244 39 349 54 585 81 363 41 465 44 512 15z m803 -385 c113 -8
273 -19 355 -26 177 -14 556 -6 755 15 74 8 248 18 386 22 223 6 251 5 257 -9
3 -9 -20 -66 -55 -135 -55 -109 -60 -124 -60 -184 0 -67 13 -104 59 -166 14
-19 57 -102 95 -185 38 -84 94 -198 125 -255 30 -57 52 -106 49 -109 -3 -3
-79 -1 -168 6 -90 6 -345 14 -568 17 -223 4 -430 7 -460 8 -30 1 -161 -2 -290
-7 -287 -9 -736 11 -751 34 -9 14 -6 115 12 448 5 95 9 253 9 350 0 98 3 181
7 184 8 9 3 9 243 -8z m-7508 -1323 c106 -103 231 -221 276 -262 46 -40 89
-85 94 -99 6 -15 18 -78 28 -141 10 -63 26 -158 34 -210 15 -94 33 -213 62
-425 37 -270 56 -318 150 -380 88 -59 173 -82 398 -110 110 -14 275 -37 366
-50 342 -51 426 -58 710 -59 152 -1 349 5 440 12 91 8 287 15 435 17 149 2
317 8 375 14 58 6 211 16 340 21 276 13 366 24 794 104 172 32 267 56 425 108
92 30 126 37 135 28 8 -8 11 -210 11 -748 0 -654 -2 -751 -18 -862 -34 -242
-114 -629 -197 -962 -53 -213 -71 -265 -93 -274 -22 -8 -389 45 -652 96 -448
85 -570 111 -765 160 -257 65 -400 102 -485 126 -231 65 -305 87 -365 106 -36
11 -99 31 -140 44 -242 76 -487 161 -700 244 -74 28 -169 64 -210 80 -392 148
-979 416 -1147 523 -37 24 -91 56 -120 72 -28 15 -55 35 -58 43 -3 9 1 74 9
146 31 264 46 626 36 851 -26 562 -160 1239 -360 1819 -53 152 -57 186 -21
166 11 -5 107 -94 213 -198z m16766 -134 c8 -39 -700 -705 -1119 -1053 -805
-669 -1697 -1250 -2635 -1717 -246 -123 -634 -303 -804 -375 -204 -86 -376
-156 -475 -193 -55 -20 -156 -59 -225 -85 -322 -122 -877 -298 -1225 -389 -55
-15 -122 -33 -150 -41 -83 -23 -391 -95 -600 -140 -333 -72 -675 -131 -985
-170 -63 -8 -164 -22 -225 -30 -60 -8 -193 -22 -295 -30 -102 -8 -228 -19
-280 -24 -220 -23 -228 -23 -248 -3 -13 13 -35 83 -65 208 -61 250 -76 333
-122 655 -13 95 -31 219 -40 274 -34 219 -45 557 -50 1465 -3 487 -7 1049 -10
1250 -3 221 -1 371 5 380 21 33 1884 8 2220 -30 252 -28 508 -42 882 -50 229
-4 420 -10 425 -13 9 -5 902 -22 1058 -20 118 2 2063 2 2180 0 61 -1 326 4
590 11 364 9 514 16 620 31 77 10 203 22 280 26 132 6 191 12 540 51 77 9 255
20 395 24 339 10 354 9 358 -12z"/>
<path d="M6520 18212 c-36 -10 -80 -26 -97 -35 -18 -10 -65 -29 -105 -43 -210
-76 -356 -182 -632 -458 -230 -230 -306 -327 -401 -508 -137 -263 -222 -579
-256 -947 -15 -172 -6 -755 15 -926 53 -432 235 -807 535 -1098 168 -163 320
-248 561 -311 249 -65 464 -60 701 17 154 51 326 142 429 227 42 35 82 60 94
60 3 0 24 -26 48 -57 135 -185 273 -297 467 -383 222 -97 501 -124 717 -70
172 43 386 175 614 379 242 216 363 370 474 602 67 140 184 451 235 625 65
218 76 309 76 634 0 276 -2 304 -27 440 -49 267 -103 439 -202 645 -122 252
-264 440 -446 587 -122 98 -323 210 -485 269 -84 30 -98 33 -225 33 -155 1
-186 -7 -345 -84 -136 -67 -241 -148 -358 -279 -47 -52 -49 -53 -67 -35 -10
11 -33 53 -50 94 -99 227 -281 405 -546 532 -161 77 -263 99 -479 104 -152 3
-190 1 -245 -14z m405 -467 c68 -18 188 -72 225 -102 33 -28 24 -37 -108 -114
-59 -34 -181 -113 -272 -174 -91 -62 -237 -154 -325 -205 -88 -51 -218 -132
-290 -180 -71 -47 -179 -117 -240 -155 -60 -38 -166 -106 -236 -152 -69 -45
-130 -83 -137 -83 -21 0 -13 49 24 159 54 159 143 333 217 426 85 106 375 388
471 460 85 62 175 110 233 124 67 16 372 13 438 -4z m1830 -303 c106 -50 220
-119 294 -179 121 -97 269 -289 244 -314 -18 -18 -923 404 -923 430 0 9 15 26
34 39 106 72 230 81 351 24z m-1319 -227 c23 -55 81 -281 109 -423 30 -154 65
-521 65 -686 0 -237 -45 -502 -159 -941 -73 -282 -101 -334 -269 -502 -185
-186 -335 -284 -519 -339 -177 -54 -404 -30 -593 63 -96 47 -257 200 -341 325
-201 298 -269 570 -269 1079 l0 206 63 44 c34 23 123 89 197 144 150 113 264
190 420 285 58 35 147 93 198 128 135 93 284 182 304 182 23 0 22 -8 -2 -90
-89 -298 -141 -827 -106 -1086 19 -147 57 -301 92 -371 34 -70 101 -143 164
-177 46 -25 60 -28 120 -24 57 3 77 9 112 34 80 56 102 116 154 409 83 474 97
700 65 1065 -33 367 -38 389 -114 468 -32 33 -39 46 -32 58 13 21 285 183 308
184 11 0 23 -13 33 -35z m946 -301 c146 -69 269 -132 272 -140 3 -8 -4 -35
-15 -61 -12 -27 -29 -101 -40 -167 -32 -209 -41 -386 -37 -722 5 -293 7 -330
31 -452 47 -237 102 -355 186 -399 117 -61 267 11 320 152 29 77 57 245 72
430 16 206 7 757 -15 879 -12 63 -14 92 -6 100 8 8 61 -15 184 -77 96 -48 178
-93 184 -100 27 -33 47 -221 46 -442 0 -273 -19 -388 -97 -620 -118 -345 -202
-530 -297 -657 -105 -139 -399 -398 -540 -476 -219 -121 -521 -89 -726 77
-112 90 -235 270 -219 321 4 11 21 47 39 78 161 285 308 851 337 1297 14 203
2 485 -30 731 -19 148 -17 199 14 284 20 56 42 90 57 90 7 0 133 -57 280 -126z"/>
<path d="M7665 12709 c-231 -15 -462 -63 -552 -115 -56 -32 -87 -96 -81 -165
6 -62 31 -97 88 -126 57 -29 76 -29 234 6 189 42 339 55 536 47 91 -4 192 -11
224 -15 144 -18 233 36 243 146 7 74 -27 130 -97 165 -90 45 -365 71 -595 57z"/>
<path d="M20109 12548 c-251 -12 -333 -42 -377 -136 -23 -50 -23 -57 -11 -94
17 -54 43 -85 90 -108 46 -24 105 -25 244 -5 55 8 150 15 212 15 127 0 371
-31 483 -62 139 -38 224 -17 263 65 49 102 -1 199 -127 246 -83 31 -307 71
-430 77 -188 9 -197 9 -347 2z"/>
</g>
</svg>
